Coordinates
version=1
nRows=16
nColumns=63
inDegrees=yes

Units are S.I. units (second, meters, Newtons, ...)
If the header above contains a line with 'inDegrees', this indicates whether rotational values are in degrees (yes) or radians (no).

endheader
time	pelvis_tilt	pelvis_list	pelvis_rotation	pelvis_tx	pelvis_ty	pelvis_tz	hip_flexion_r	hip_adduction_r	hip_rotation_r	knee_angle_r	knee_angle_r_beta	ankle_angle_r	subtalar_angle_r	mtp_angle_r	hip_flexion_l	hip_adduction_l	hip_rotation_l	knee_angle_l	knee_angle_l_beta	ankle_angle_l	subtalar_angle_l	mtp_angle_l	L5_S1_Flex_Ext	L5_S1_Lat_Bending	L5_S1_axial_rotation	L4_L5_Flex_Ext	L4_L5_Lat_Bending	L4_L5_axial_rotation	L3_L4_Flex_Ext	L3_L4_Lat_Bending	L3_L4_axial_rotation	L2_L3_Flex_Ext	L2_L3_Lat_Bending	L2_L3_axial_rotation	L1_L2_Flex_Ext	L1_L2_Lat_Bending	L1_L2_axial_rotation	L1_T12_Flex_Ext	L1_T12_Lat_Bending	L1_T12_axial_rotation	Abs_r3	Abs_r2	Abs_r1	Abs_t1	Abs_t2	neck_flexion	neck_bending	neck_rotation	arm_flex_r	arm_add_r	arm_rot_r	elbow_flex_r	pro_sup_r	wrist_flex_r	wrist_dev_r	arm_flex_l	arm_add_l	arm_rot_l	elbow_flex_l	pro_sup_l	wrist_flex_l	wrist_dev_l
1.216667	-4.666795	-1.708502	91.913251	0.246184	0.802701	0.734656	4.916535	-2.073344	-1.031124	7.945262	0.138671	27.462706	-3.888700	0.000000	7.063968	1.596551	-2.514382	9.085368	0.158570	33.223259	5.710016	0.000000	0.467860	-0.149481	0.448681	0.868864	-0.198809	0.476724	0.768648	-0.363447	0.476724	0.534718	-0.363447	0.392596	0.434455	-0.304821	0.364554	0.267335	-0.231545	0.336511	3.341881	-1.690955	2.495431	0.000000	0.000000	28.272905	4.748856	0.944517	15.225687	-6.464333	59.827903	43.057793	34.018413	1.595498	10.074791	23.637636	-5.868627	78.863362	41.564187	52.071642	12.649569	6.287142
1.233333	-4.622848	-1.749698	91.902928	0.245967	0.802662	0.734466	4.778885	-2.003834	-0.445051	7.561843	0.131979	27.129084	-4.544564	0.000000	7.093707	1.565373	-2.595692	9.145161	0.159613	33.201442	5.739796	0.000000	0.477957	-0.141163	0.436310	0.887615	-0.187746	0.463579	0.785236	-0.343223	0.463579	0.546257	-0.343223	0.381771	0.443831	-0.287859	0.354502	0.273105	-0.218661	0.327232	3.414001	-1.596859	2.426624	0.000000	0.000000	28.282896	4.603107	0.830214	15.001868	-6.382908	59.131259	43.075989	34.576510	1.483767	10.621417	23.536242	-5.837175	78.853240	41.482213	52.221728	12.548602	6.148263
1.250000	-4.579600	-1.779888	91.898666	0.245748	0.802662	0.734335	4.659866	-1.945777	0.028301	7.241089	0.126381	26.850232	-5.071368	0.000000	7.111722	1.537015	-2.669841	9.192476	0.160439	33.164969	5.760155	0.000000	0.484358	-0.133263	0.427990	0.899501	-0.177240	0.454739	0.795751	-0.324015	0.454739	0.553572	-0.324015	0.374491	0.449774	-0.271750	0.347742	0.276762	-0.206424	0.320992	3.459718	-1.507495	2.380351	0.000000	0.000000	28.292471	4.469125	0.721948	14.764961	-6.318368	58.377573	43.118423	35.184120	1.376746	11.130816	23.465618	-5.797097	78.843201	41.414072	52.251062	12.432229	6.021872
1.266667	-4.538528	-1.800423	91.905216	0.245554	0.802694	0.734298	4.562031	-1.893864	0.437520	6.983575	0.121886	26.610326	-5.551965	0.000000	7.134525	1.505897	-2.781300	9.252619	0.161489	33.130567	5.834699	0.000000	0.486779	-0.126134	0.420361	0.903998	-0.167758	0.446633	0.799730	-0.306682	0.446633	0.556340	-0.306682	0.367815	0.452023	-0.257212	0.341543	0.278146	-0.195381	0.315270	3.477015	-1.426850	2.337919	0.000000	0.000000	28.300312	4.386620	0.653656	14.536400	-6.262365	57.616413	43.168497	35.755101	1.295953	11.556050	23.423462	-5.756574	78.805340	41.343963	52.197487	12.384988	5.872595
1.283333	-4.502542	-1.810534	91.920272	0.245408	0.802750	0.734393	4.497867	-1.854845	0.728007	6.812171	0.118895	26.436050	-5.902283	0.000000	7.171919	1.472918	-2.917549	9.340079	0.163015	33.106159	5.941044	0.000000	0.484421	-0.120320	0.414019	0.899618	-0.160026	0.439895	0.795855	-0.292546	0.439895	0.553645	-0.292546	0.362267	0.449833	-0.245357	0.336390	0.276798	-0.186376	0.310514	3.460170	-1.361085	2.302649	0.000000	0.000000	28.304957	4.357109	0.609830	14.324321	-6.205222	56.852430	43.214397	36.305301	1.215051	11.854596	23.426308	-5.715842	78.788609	41.278095	52.027874	12.340067	5.706117
1.300000	-4.479264	-1.805596	91.932250	0.245315	0.802832	0.734559	4.454451	-1.838612	0.848426	6.713205	0.117168	26.345015	-6.023806	0.000000	7.191414	1.450819	-3.049202	9.405366	0.164155	33.073797	6.041067	0.000000	0.477653	-0.116137	0.410816	0.887050	-0.154463	0.436492	0.784737	-0.282376	0.436492	0.545910	-0.282376	0.359464	0.443549	-0.236827	0.333788	0.272931	-0.179897	0.308112	3.411830	-1.313768	2.284838	0.000000	0.000000	28.304479	4.383847	0.615716	14.118297	-6.159779	56.090436	43.277556	36.920818	1.141367	11.979429	23.471400	-5.691985	78.816644	41.257127	51.735064	12.238243	5.531261
1.316667	-4.470121	-1.786441	91.951919	0.245308	0.802927	0.734819	4.435468	-1.827103	0.984569	6.685801	0.116689	26.283777	-6.196866	0.000000	7.205750	1.440878	-3.126331	9.465822	0.165210	33.038225	6.080468	0.000000	0.466348	-0.113530	0.397566	0.866055	-0.150995	0.422414	0.766163	-0.276037	0.422414	0.532989	-0.276037	0.347870	0.433051	-0.231511	0.323022	0.266471	-0.175858	0.298174	3.331076	-1.284276	2.211141	0.000000	0.000000	28.298830	4.531769	0.794494	14.043152	-6.112282	55.677941	43.294810	37.237880	1.142399	11.841238	23.492140	-5.720131	78.671524	41.288162	51.617318	12.134025	5.351156
1.333333	-4.476249	-1.758753	91.983057	0.245366	0.803022	0.735124	4.441634	-1.830351	1.056500	6.725341	0.117379	26.276167	-6.300748	0.000000	7.216738	1.444973	-3.150043	9.518897	0.166136	33.005874	6.071764	0.000000	0.452564	-0.112922	0.379193	0.840456	-0.150186	0.402893	0.743517	-0.274558	0.402893	0.517235	-0.274558	0.331794	0.420251	-0.230270	0.308095	0.258595	-0.174916	0.284395	3.232618	-1.277395	2.108959	0.000000	0.000000	28.289329	4.743977	1.053492	14.043711	-6.072479	55.480992	43.305253	37.313899	1.159848	11.546389	23.493423	-5.773150	78.367630	41.345565	51.663099	12.099141	5.244176
1.350000	-4.499921	-1.727090	92.029435	0.245482	0.803108	0.735466	4.479381	-1.855890	1.007984	6.835025	0.119294	26.335585	-6.257203	0.000000	7.226970	1.459024	-3.203826	9.559898	0.166852	32.989975	6.143280	0.000000	0.437515	-0.114573	0.356651	0.812510	-0.152382	0.378942	0.718794	-0.278572	0.378942	0.500036	-0.278572	0.312070	0.406277	-0.233637	0.289779	0.249996	-0.177473	0.267488	3.125128	-1.296069	1.983586	0.000000	0.000000	28.277060	5.001141	1.375815	14.092223	-6.031443	55.407149	43.305627	37.295105	1.193031	11.156030	23.529622	-5.860231	78.112083	41.444778	51.636296	12.006103	5.152900
1.366667	-4.540505	-1.691239	92.059675	0.245671	0.803180	0.735814	4.547537	-1.900637	0.879061	7.008139	0.122315	26.454002	-6.079613	0.000000	7.227400	1.486645	-3.237739	9.577800	0.167164	32.978045	6.188760	0.000000	0.421946	-0.117918	0.333493	0.783596	-0.156830	0.354336	0.693215	-0.286705	0.354336	0.482242	-0.286705	0.291806	0.391819	-0.240457	0.270963	0.241100	-0.182654	0.250120	3.013918	-1.333907	1.854788	0.000000	0.000000	28.262790	5.284753	1.747359	14.186118	-5.989238	55.447021	43.299659	37.142399	1.223352	10.723313	23.544029	-5.973630	77.743118	41.569241	51.763015	11.950349	5.101757
1.383333	-4.594625	-1.649333	92.077158	0.245902	0.803246	0.736177	4.642091	-1.968807	0.594816	7.246064	0.126468	26.646877	-5.663686	0.000000	7.219705	1.525558	-3.256443	9.578142	0.167170	32.967070	6.215532	0.000000	0.405915	-0.122302	0.304812	0.753824	-0.162662	0.323863	0.666877	-0.297365	0.323863	0.463920	-0.297365	0.266710	0.376932	-0.249398	0.247660	0.231940	-0.189446	0.228609	2.899409	-1.383504	1.695273	0.000000	0.000000	28.245923	5.594425	2.175290	14.342456	-5.930062	55.624215	43.264740	36.826162	1.248719	10.278078	23.526901	-6.115412	77.267490	41.716195	51.996278	11.916953	5.115592
1.400000	-4.657839	-1.598410	92.101855	0.246121	0.803307	0.736532	4.746500	-2.066128	0.035166	7.537166	0.131548	26.931877	-4.880425	0.000000	7.195079	1.578699	-3.200081	9.551255	0.166701	32.946052	6.177932	0.000000	0.389345	-0.126901	0.268618	0.723052	-0.168779	0.285406	0.639655	-0.308547	0.285406	0.444982	-0.308547	0.235041	0.361546	-0.258777	0.218252	0.222472	-0.196570	0.201463	2.781051	-1.435531	1.493972	0.000000	0.000000	28.227379	5.926772	2.669237	14.516997	-5.852013	55.797374	43.216836	36.573241	1.275227	9.874893	23.493723	-6.298922	76.809318	41.928748	52.085923	11.780871	5.186732
1.416667	-4.728090	-1.546788	92.131136	0.246327	0.803351	0.736891	4.865304	-2.169280	-0.533332	7.872047	0.137393	27.219983	-4.125898	0.000000	7.173878	1.639977	-3.114449	9.523546	0.166217	32.935168	6.131400	0.000000	0.373767	-0.132262	0.231147	0.694123	-0.175908	0.245593	0.614062	-0.321582	0.245593	0.427178	-0.321582	0.202253	0.347080	-0.269709	0.187807	0.213570	-0.204874	0.173360	2.669780	-1.496174	1.285568	0.000000	0.000000	28.207108	6.211785	3.095155	14.682584	-5.763300	55.898613	43.185488	36.228727	1.279339	9.642083	23.452131	-6.481053	76.373903	42.110147	52.124905	11.787640	5.230707
1.433333	-4.802000	-1.497029	92.144766	0.246499	0.803393	0.737224	4.998618	-2.304865	-1.464849	8.247814	0.143952	27.610127	-2.861615	0.000000	7.153520	1.710645	-2.986131	9.493797	0.165698	32.923893	6.015159	0.000000	0.360106	-0.137175	0.191698	0.668754	-0.182442	0.203679	0.591619	-0.333527	0.203679	0.411566	-0.333527	0.167735	0.334395	-0.279727	0.155754	0.205765	-0.212484	0.143773	2.572204	-1.551748	1.066165	0.000000	0.000000	28.185570	6.518476	3.559763	14.850032	-5.661375	56.002649	43.136403	35.995365	1.255548	9.431916	23.353908	-6.670965	75.862400	42.310812	52.171486	11.775871	5.333187
1.450000	-4.876344	-1.449775	92.158573	0.246661	0.803433	0.737498	5.115534	-2.415827	-2.069005	8.594314	0.149999	27.882037	-2.108168	0.000000	7.123679	1.778372	-2.896672	9.444290	0.164834	32.928423	5.970971	0.000000	0.349177	-0.143020	0.158368	0.648457	-0.190217	0.168266	0.573663	-0.347739	0.168266	0.399074	-0.347739	0.138572	0.324246	-0.291646	0.128674	0.199520	-0.221538	0.118776	2.494136	-1.617871	0.880796	0.000000	0.000000	28.163565	6.745096	3.882496	14.994320	-5.566280	56.091068	43.100723	35.710825	1.231789	9.311647	23.295142	-6.835728	75.557720	42.466679	51.964580	11.828468	5.421254
1.466667	-4.946332	-1.408419	92.165470	0.246781	0.803479	0.737707	5.221894	-2.533691	-2.796112	8.912267	0.155548	28.183986	-1.183045	0.000000	7.096687	1.848138	-2.759866	9.396752	0.164004	32.934628	5.859979	0.000000	0.341129	-0.148662	0.129539	0.633510	-0.197721	0.137636	0.560440	-0.361457	0.137636	0.389876	-0.361457	0.113347	0.316772	-0.303152	0.105251	0.194921	-0.230278	0.097155	2.436649	-1.681696	0.720459	0.000000	0.000000	28.143279	6.961512	4.159774	15.141239	-5.491692	56.258944	43.064775	35.428470	1.199658	9.232318	23.204550	-6.971680	75.217768	42.593255	51.814469	11.911488	5.557446
